<svg width="720" height="720" xmlns="http://www.w3.org/2000/svg" xmlns:xlink="http://www.w3.org/1999/xlink" overflow="hidden"><defs><clipPath id="clip0"><rect x="0" y="0" width="720" height="720"/></clipPath></defs><g clip-path="url(#clip0)"><rect x="0" y="0" width="720" height="720" fill="#FFFFFF" fill-opacity="0"/><path d="M568.908 337.615C566.66 337.615 565.537 338.404 565.537 339.982 565.537 340.699 565.794 341.273 566.308 341.703 566.823 342.134 567.527 342.349 568.42 342.349 569.314 342.349 570.099 342.119 570.776 341.66 571.453 341.201 571.94 340.527 572.238 339.638 572.238 338.964 572.238 338.289 572.238 337.615 571.128 337.615 570.018 337.615 568.908 337.615ZM403.076 337.615C400.828 337.615 399.705 338.404 399.705 339.982 399.705 340.699 399.962 341.273 400.477 341.703 400.991 342.134 401.695 342.349 402.588 342.349 403.482 342.349 404.267 342.119 404.944 341.66 405.621 341.201 406.108 340.527 406.406 339.638 406.406 338.964 406.406 338.289 406.406 337.615 405.296 337.615 404.186 337.615 403.076 337.615ZM262.626 337.615C260.379 337.615 259.255 338.404 259.255 339.982 259.255 340.699 259.513 341.273 260.027 341.703 260.542 342.134 261.245 342.349 262.139 342.349 263.032 342.349 263.818 342.119 264.494 341.66 265.171 341.201 265.659 340.527 265.956 339.638 265.956 338.964 265.956 338.289 265.956 337.615 264.846 337.615 263.736 337.615 262.626 337.615ZM108.639 337.615C106.392 337.615 105.269 338.404 105.269 339.982 105.269 340.699 105.526 341.273 106.04 341.703 106.555 342.134 107.259 342.349 108.152 342.349 109.046 342.349 109.831 342.119 110.508 341.66 111.184 341.201 111.672 340.527 111.97 339.638 111.97 338.964 111.97 338.289 111.97 337.615 110.86 337.615 109.75 337.615 108.639 337.615ZM430.083 329.912C428.729 329.912 427.619 330.4 426.752 331.375 425.886 332.351 425.453 333.699 425.453 335.421 425.453 337.171 425.886 338.54 426.752 339.53 427.619 340.52 428.729 341.015 430.083 341.015 431.409 341.015 432.506 340.52 433.372 339.53 434.239 338.54 434.672 337.171 434.672 335.421 434.672 333.699 434.245 332.351 433.392 331.375 432.54 330.4 431.436 329.912 430.083 329.912ZM219.578 329.912C218.224 329.912 217.114 330.407 216.247 331.397 215.381 332.387 214.948 333.742 214.948 335.464 214.948 337.185 215.381 338.54 216.247 339.53 217.114 340.52 218.224 341.015 219.578 341.015 220.931 341.015 222.041 340.52 222.908 339.53 223.774 338.54 224.207 337.185 224.207 335.464 224.207 333.742 223.774 332.387 222.908 331.397 222.041 330.407 220.931 329.912 219.578 329.912ZM472.887 325.351C471.669 328.564 470.451 331.777 469.232 334.99 471.669 334.99 474.106 334.99 476.543 334.99 475.324 331.777 474.106 328.564 472.887 325.351ZM303.671 325.351C302.453 328.564 301.235 331.777 300.016 334.99 302.453 334.99 304.89 334.99 307.326 334.99 306.108 331.777 304.89 328.564 303.671 325.351ZM601.627 323.801C604.199 323.801 606.771 323.801 609.344 323.801 609.344 331.576 609.344 339.351 609.344 347.126 606.771 347.126 604.199 347.126 601.627 347.126 601.627 339.351 601.627 331.576 601.627 323.801ZM503.482 323.801C506.054 323.801 508.626 323.801 511.198 323.801 511.198 331.576 511.198 339.351 511.198 347.126 508.626 347.126 506.054 347.126 503.482 347.126 503.482 339.351 503.482 331.576 503.482 323.801ZM195.508 323.801C198.08 323.801 200.652 323.801 203.225 323.801 203.225 331.576 203.225 339.351 203.225 347.126 200.652 347.126 198.08 347.126 195.508 347.126 195.508 339.351 195.508 331.576 195.508 323.801ZM629.094 323.414C630.638 323.414 632.018 323.715 633.237 324.318 634.455 324.92 635.443 325.838 636.201 327.072 637.068 325.896 638.164 324.992 639.491 324.361 640.818 323.73 642.266 323.414 643.836 323.414 646.544 323.414 648.703 324.275 650.314 325.996 651.925 327.718 652.73 330.314 652.73 333.785 652.73 338.232 652.73 342.679 652.73 347.126 650.158 347.126 647.586 347.126 645.014 347.126 645.014 343.124 645.014 339.121 645.014 335.119 645.014 333.484 644.723 332.279 644.141 331.504 643.559 330.73 642.74 330.343 641.684 330.343 640.52 330.343 639.586 330.773 638.882 331.634 638.178 332.494 637.826 333.8 637.826 335.55 637.826 339.408 637.826 343.267 637.826 347.126 635.254 347.126 632.682 347.126 630.11 347.126 630.11 343.124 630.11 339.121 630.11 335.119 630.11 331.935 629 330.343 626.78 330.343 625.588 330.343 624.641 330.773 623.937 331.634 623.233 332.494 622.881 333.8 622.881 335.55 622.881 339.408 622.881 343.267 622.881 347.126 620.309 347.126 617.737 347.126 615.164 347.126 615.164 339.351 615.164 331.576 615.164 323.801 617.615 323.801 620.065 323.801 622.515 323.801 622.515 324.619 622.515 325.437 622.515 326.254 623.328 325.308 624.295 324.598 625.419 324.124 626.543 323.651 627.768 323.414 629.094 323.414ZM599.448 323.414C599.448 325.867 599.448 328.32 599.448 330.773 598.744 330.687 598.162 330.644 597.701 330.644 596.05 330.644 594.757 331.117 593.823 332.064 592.889 333.011 592.422 334.459 592.422 336.41 592.422 339.982 592.422 343.554 592.422 347.126 589.85 347.126 587.278 347.126 584.706 347.126 584.706 339.351 584.706 331.576 584.706 323.801 587.156 323.801 589.606 323.801 592.056 323.801 592.056 324.734 592.056 325.666 592.056 326.599 592.841 325.537 593.864 324.741 595.123 324.21 596.381 323.68 597.823 323.414 599.448 323.414ZM568.704 323.414C572.359 323.414 575.148 324.296 577.071 326.061 578.993 327.825 579.954 330.529 579.954 334.173 579.954 338.49 579.954 342.808 579.954 347.126 577.558 347.126 575.162 347.126 572.766 347.126 572.766 346.122 572.766 345.117 572.766 344.113 571.656 346.38 569.49 347.513 566.268 347.513 564.562 347.513 563.087 347.197 561.841 346.566 560.596 345.935 559.655 345.082 559.019 344.006 558.382 342.93 558.064 341.703 558.064 340.326 558.064 338.117 558.863 336.403 560.46 335.184 562.058 333.965 564.521 333.355 567.852 333.355 569.314 333.355 570.776 333.355 572.238 333.355 572.102 330.888 570.546 329.654 567.567 329.654 566.511 329.654 565.442 329.833 564.359 330.192 563.276 330.551 562.355 331.045 561.597 331.677 560.731 329.826 559.865 327.976 558.998 326.125 560.217 325.265 561.699 324.598 563.445 324.124 565.192 323.651 566.945 323.414 568.704 323.414ZM402.873 323.414C406.528 323.414 409.316 324.296 411.239 326.061 413.161 327.825 414.122 330.529 414.122 334.173 414.122 338.49 414.122 342.808 414.122 347.126 411.726 347.126 409.33 347.126 406.934 347.126 406.934 346.122 406.934 345.117 406.934 344.113 405.824 346.38 403.658 347.513 400.436 347.513 398.73 347.513 397.255 347.197 396.009 346.566 394.764 345.935 393.823 345.082 393.187 344.006 392.55 342.93 392.232 341.703 392.232 340.326 392.232 338.117 393.031 336.403 394.628 335.184 396.226 333.965 398.69 333.355 402.02 333.355 403.482 333.355 404.944 333.355 406.406 333.355 406.27 330.888 404.714 329.654 401.736 329.654 400.68 329.654 399.61 329.833 398.527 330.192 397.444 330.551 396.524 331.045 395.766 331.677 394.899 329.826 394.033 327.976 393.166 326.125 394.385 325.265 395.867 324.598 397.613 324.124 399.36 323.651 401.113 323.414 402.873 323.414ZM365.117 323.414C366.66 323.414 368.041 323.715 369.259 324.318 370.478 324.92 371.466 325.838 372.224 327.072 373.091 325.896 374.187 324.992 375.514 324.361 376.84 323.73 378.289 323.414 379.859 323.414 382.567 323.414 384.726 324.275 386.337 325.996 387.948 327.718 388.753 330.314 388.753 333.785 388.753 338.232 388.753 342.679 388.753 347.126 386.181 347.126 383.609 347.126 381.037 347.126 381.037 343.124 381.037 339.121 381.037 335.119 381.037 333.484 380.746 332.279 380.164 331.504 379.582 330.73 378.763 330.343 377.707 330.343 376.543 330.343 375.609 330.773 374.905 331.634 374.201 332.494 373.849 333.8 373.849 335.55 373.849 339.408 373.849 343.267 373.849 347.126 371.277 347.126 368.704 347.126 366.132 347.126 366.132 343.124 366.132 339.121 366.132 335.119 366.132 331.935 365.022 330.343 362.802 330.343 361.611 330.343 360.663 330.773 359.959 331.634 359.255 332.494 358.903 333.8 358.903 335.55 358.903 339.408 358.903 343.267 358.903 347.126 356.331 347.126 353.759 347.126 351.187 347.126 351.187 339.351 351.187 331.576 351.187 323.801 353.637 323.801 356.088 323.801 358.538 323.801 358.538 324.619 358.538 325.437 358.538 326.254 359.35 325.308 360.318 324.598 361.442 324.124 362.565 323.651 363.79 323.414 365.117 323.414ZM262.423 323.414C266.078 323.414 268.867 324.296 270.789 326.061 272.711 327.825 273.673 330.529 273.673 334.173 273.673 338.49 273.673 342.808 273.673 347.126 271.277 347.126 268.88 347.126 266.484 347.126 266.484 346.122 266.484 345.117 266.484 344.113 265.374 346.38 263.208 347.513 259.986 347.513 258.281 347.513 256.805 347.197 255.56 346.566 254.314 345.935 253.373 345.082 252.737 344.006 252.101 342.93 251.783 341.703 251.783 340.326 251.783 338.117 252.582 336.403 254.179 335.184 255.776 333.965 258.24 333.355 261.57 333.355 263.032 333.355 264.494 333.355 265.956 333.355 265.821 330.888 264.264 329.654 261.286 329.654 260.23 329.654 259.161 329.833 258.078 330.192 256.995 330.551 256.074 331.045 255.316 331.677 254.45 329.826 253.583 327.976 252.717 326.125 253.935 325.265 255.418 324.598 257.164 324.124 258.91 323.651 260.663 323.414 262.423 323.414ZM221.202 323.414C223.206 323.414 225.026 323.909 226.664 324.899 228.302 325.889 229.602 327.294 230.563 329.116 231.524 330.938 232.005 333.054 232.005 335.464 232.005 337.873 231.524 339.989 230.563 341.811 229.602 343.633 228.302 345.039 226.664 346.028 225.026 347.018 223.206 347.513 221.202 347.513 218.63 347.513 216.586 346.695 215.07 345.06 215.07 348.531 215.07 352.003 215.07 355.474 212.498 355.474 209.926 355.474 207.353 355.474 207.353 344.917 207.353 334.359 207.353 323.801 209.804 323.801 212.254 323.801 214.704 323.801 214.704 324.576 214.704 325.351 214.704 326.125 216.139 324.318 218.305 323.414 221.202 323.414ZM108.436 323.414C112.091 323.414 114.88 324.296 116.802 326.061 118.725 327.825 119.686 330.529 119.686 334.173 119.686 338.49 119.686 342.808 119.686 347.126 117.29 347.126 114.894 347.126 112.498 347.126 112.498 346.122 112.498 345.117 112.498 344.113 111.388 346.38 109.222 347.513 106 347.513 104.294 347.513 102.818 347.197 101.573 346.566 100.328 345.935 99.3867 345.082 98.7505 344.006 98.1142 342.93 97.7961 341.703 97.7961 340.326 97.7961 338.117 98.5948 336.403 100.192 335.184 101.79 333.965 104.253 333.355 107.584 333.355 109.046 333.355 110.508 333.355 111.97 333.355 111.834 330.888 110.277 329.654 107.299 329.654 106.243 329.654 105.174 329.833 104.091 330.192 103.008 330.551 102.087 331.045 101.329 331.677 100.463 329.826 99.5966 327.976 98.7302 326.125 99.9485 325.265 101.431 324.598 103.177 324.124 104.923 323.651 106.677 323.414 108.436 323.414ZM237.014 318.594C239.586 318.594 242.158 318.594 244.73 318.594 244.73 320.617 244.73 322.64 244.73 324.662 246.409 324.662 248.087 324.662 249.766 324.662 249.766 326.699 249.766 328.736 249.766 330.773 248.087 330.773 246.409 330.773 244.73 330.773 244.73 333.355 244.73 335.937 244.73 338.519 244.73 339.351 244.94 340.004 245.359 340.477 245.779 340.95 246.341 341.187 247.045 341.187 247.938 341.187 248.723 340.943 249.4 340.456 250.037 342.363 250.673 344.271 251.309 346.179 250.659 346.609 249.867 346.939 248.933 347.169 247.999 347.398 247.004 347.513 245.948 347.513 243.078 347.513 240.872 346.767 239.329 345.275 237.785 343.783 237.014 341.56 237.014 338.605 237.014 335.994 237.014 333.384 237.014 330.773 235.944 330.773 234.875 330.773 233.805 330.773 233.805 328.736 233.805 326.699 233.805 324.662 234.875 324.662 235.944 324.662 237.014 324.662 237.014 322.64 237.014 320.617 237.014 318.594ZM529.23 317.002C531.883 317.002 534.536 317.002 537.19 317.002 537.19 321.176 537.19 325.351 537.19 329.525 540.858 325.351 544.527 321.176 548.195 317.002 551.147 317.002 554.098 317.002 557.049 317.002 553.177 321.449 549.306 325.896 545.434 330.343 549.509 335.937 553.583 341.531 557.658 347.126 554.544 347.126 551.431 347.126 548.317 347.126 545.61 343.482 542.902 339.839 540.195 336.195 539.193 337.328 538.191 338.462 537.19 339.595 537.19 342.105 537.19 344.615 537.19 347.126 534.536 347.126 531.883 347.126 529.23 347.126 529.23 337.085 529.23 327.043 529.23 317.002ZM468.989 317.002C471.629 317.002 474.268 317.002 476.908 317.002 481.105 327.043 485.301 337.085 489.498 347.126 486.709 347.126 483.92 347.126 481.132 347.126 480.387 345.175 479.643 343.224 478.898 341.273 474.891 341.273 470.884 341.273 466.877 341.273 466.132 343.224 465.388 345.175 464.643 347.126 461.909 347.126 459.174 347.126 456.44 347.126 460.623 337.085 464.806 327.043 468.989 317.002ZM299.773 317.002C302.412 317.002 305.052 317.002 307.692 317.002 311.888 327.043 316.085 337.085 320.282 347.126 317.493 347.126 314.704 347.126 311.916 347.126 311.171 345.175 310.426 343.224 309.682 341.273 305.675 341.273 301.668 341.273 297.661 341.273 296.916 343.224 296.172 345.175 295.427 347.126 292.693 347.126 289.958 347.126 287.224 347.126 291.407 337.085 295.59 327.043 299.773 317.002ZM67.2695 317.002C69.9499 317.002 72.6303 317.002 75.3106 317.002 75.3106 320.775 75.3106 324.547 75.3106 328.32 78.9657 328.32 82.6208 328.32 86.2759 328.32 86.2759 324.547 86.2759 320.775 86.2759 317.002 88.9562 317.002 91.6366 317.002 94.317 317.002 94.317 327.043 94.317 337.085 94.317 347.126 91.6366 347.126 88.9562 347.126 86.2759 347.126 86.2759 343.21 86.2759 339.294 86.2759 335.378 82.6208 335.378 78.9657 335.378 75.3106 335.378 75.3106 339.294 75.3106 343.21 75.3106 347.126 72.6303 347.126 69.9499 347.126 67.2695 347.126 67.2695 337.085 67.2695 327.043 67.2695 317.002ZM179.588 316.4C182.188 316.4 184.53 316.887 186.614 317.863 188.699 318.838 190.432 320.244 191.813 322.08 190.107 323.715 188.401 325.351 186.696 326.986 184.854 324.633 182.621 323.457 179.995 323.457 178.451 323.457 177.077 323.816 175.872 324.533 174.668 325.25 173.734 326.262 173.07 327.567 172.407 328.872 172.075 330.371 172.075 332.064 172.075 333.757 172.407 335.256 173.07 336.561 173.734 337.866 174.668 338.878 175.872 339.595 177.077 340.312 178.451 340.671 179.995 340.671 182.621 340.671 184.854 339.494 186.696 337.142 188.401 338.777 190.107 340.412 191.813 342.048 190.432 343.884 188.699 345.29 186.614 346.265 184.53 347.241 182.188 347.728 179.588 347.728 176.61 347.728 173.937 347.061 171.568 345.727 169.199 344.393 167.337 342.535 165.983 340.154 164.63 337.773 163.953 335.076 163.953 332.064 163.953 329.052 164.63 326.355 165.983 323.974 167.337 321.592 169.199 319.735 171.568 318.401 173.937 317.067 176.61 316.4 179.588 316.4ZM491.637 315.195C494.209 315.195 496.781 315.195 499.353 315.195 499.353 325.838 499.353 336.482 499.353 347.126 496.781 347.126 494.209 347.126 491.637 347.126 491.637 336.482 491.637 325.838 491.637 315.195ZM434.55 315.195C437.122 315.195 439.694 315.195 442.266 315.195 442.266 325.838 442.266 336.482 442.266 347.126 439.816 347.126 437.366 347.126 434.915 347.126 434.915 346.351 434.915 345.577 434.915 344.802 433.48 346.609 431.328 347.513 428.458 347.513 426.455 347.513 424.627 347.018 422.975 346.028 421.324 345.039 420.018 343.626 419.056 341.79 418.095 339.953 417.615 337.83 417.615 335.421 417.615 333.011 418.095 330.895 419.056 329.073 420.018 327.251 421.324 325.853 422.975 324.877 424.627 323.902 426.455 323.414 428.458 323.414 431.084 323.414 433.115 324.217 434.55 325.824 434.55 322.281 434.55 318.738 434.55 315.195ZM322.42 315.195C324.993 315.195 327.565 315.195 330.137 315.195 330.137 318.781 330.137 322.367 330.137 325.953 330.976 325.121 331.964 324.49 333.101 324.06 334.238 323.629 335.457 323.414 336.756 323.414 339.491 323.414 341.691 324.275 343.356 325.996 345.021 327.718 345.854 330.314 345.854 333.785 345.854 338.232 345.854 342.679 345.854 347.126 343.281 347.126 340.709 347.126 338.137 347.126 338.137 343.124 338.137 339.121 338.137 335.119 338.137 331.935 336.932 330.343 334.523 330.343 333.196 330.343 332.133 330.802 331.335 331.72 330.536 332.638 330.137 334.015 330.137 335.851 330.137 339.609 330.137 343.367 330.137 347.126 327.565 347.126 324.993 347.126 322.42 347.126 322.42 336.482 322.42 325.838 322.42 315.195ZM124.438 315.195C127.01 315.195 129.582 315.195 132.154 315.195 132.154 320.775 132.154 326.355 132.154 331.935 134.78 329.224 137.406 326.513 140.032 323.801 143.078 323.801 146.124 323.801 149.17 323.801 146.124 327.129 143.078 330.457 140.032 333.785 143.336 338.232 146.639 342.679 149.942 347.126 146.828 347.126 143.715 347.126 140.601 347.126 138.543 344.4 136.486 341.675 134.428 338.949 133.67 339.767 132.912 340.585 132.154 341.402 132.154 343.31 132.154 345.218 132.154 347.126 129.582 347.126 127.01 347.126 124.438 347.126 124.438 336.482 124.438 325.838 124.438 315.195ZM605.485 312.527C606.893 312.527 608.03 312.921 608.897 313.71 609.763 314.499 610.196 315.51 610.196 316.744 610.196 318.035 609.763 319.104 608.897 319.95 608.03 320.796 606.893 321.219 605.485 321.219 604.077 321.219 602.94 320.803 602.074 319.971 601.208 319.139 600.774 318.107 600.774 316.873 600.774 315.639 601.208 314.607 602.074 313.775 602.94 312.943 604.077 312.527 605.485 312.527ZM507.34 312.527C508.748 312.527 509.885 312.921 510.751 313.71 511.618 314.499 512.051 315.51 512.051 316.744 512.051 318.035 511.618 319.104 510.751 319.95 509.885 320.796 508.748 321.219 507.34 321.219 505.932 321.219 504.795 320.803 503.929 319.971 503.062 319.139 502.629 318.107 502.629 316.873 502.629 315.639 503.062 314.607 503.929 313.775 504.795 312.943 505.932 312.527 507.34 312.527ZM199.366 312.527C200.774 312.527 201.911 312.921 202.778 313.71 203.644 314.499 204.077 315.51 204.077 316.744 204.077 318.035 203.644 319.104 202.778 319.95 201.911 320.796 200.774 321.219 199.366 321.219 197.959 321.219 196.821 320.803 195.955 319.971 195.089 319.139 194.655 318.107 194.655 316.873 194.655 315.639 195.089 314.607 195.955 313.775 196.821 312.943 197.959 312.527 199.366 312.527Z" fill-rule="evenodd"/><text fill="#000000" fill-opacity="0" font-family="Arial,Arial_MSFontService,sans-serif" font-size="42.9477" x="67.2695" y="350.106">Hak Cipta Ahmad Ali Karim</text><path d="M133.693 367.194C137.835 367.194 141.977 367.194 146.12 367.194 146.12 369.274 146.12 371.354 146.12 373.434 144.549 373.434 142.979 373.434 141.409 373.434 141.409 382.7 141.409 391.967 141.409 401.233 142.979 401.233 144.549 401.233 146.12 401.233 146.12 403.313 146.12 405.393 146.12 407.473 141.977 407.473 137.835 407.473 133.693 407.473 133.693 394.047 133.693 380.62 133.693 367.194Z" fill-rule="evenodd"/><text fill="#000000" fill-opacity="0" font-family="Arial,Arial_MSFontService,sans-serif" font-size="40.2796" x="133.693" y="402.438">[ </text><path d="M387.656 381.886C386.692 384.43 385.727 386.974 384.763 389.518 386.692 389.518 388.621 389.518 390.55 389.518 389.585 386.974 388.621 384.43 387.656 381.886ZM306.432 381.886C305.468 384.43 304.503 386.974 303.539 389.518 305.468 389.518 307.397 389.518 309.326 389.518 308.361 386.974 307.397 384.43 306.432 381.886ZM253.975 381.886C253.011 384.43 252.046 386.974 251.082 389.518 253.011 389.518 254.94 389.518 256.869 389.518 255.904 386.974 254.94 384.43 253.975 381.886ZM171.059 381.886C170.095 384.43 169.13 386.974 168.166 389.518 170.095 389.518 172.024 389.518 173.953 389.518 172.988 386.974 172.024 384.43 171.059 381.886ZM275.403 380.66C275.403 385.021 275.403 389.381 275.403 393.742 276.743 393.742 278.082 393.742 279.422 393.742 281.351 393.742 282.9 393.163 284.068 392.005 285.236 390.846 285.82 389.245 285.82 387.201 285.82 385.157 285.236 383.556 284.068 382.397 282.9 381.239 281.351 380.66 279.422 380.66 278.082 380.66 276.743 380.66 275.403 380.66ZM409.084 380.592C409.084 382.92 409.084 385.248 409.084 387.576 410.263 387.576 411.442 387.576 412.621 387.576 413.928 387.576 414.914 387.275 415.579 386.673 416.243 386.071 416.575 385.214 416.575 384.101 416.575 382.988 416.243 382.125 415.579 381.511 414.914 380.898 413.928 380.592 412.621 380.592 411.442 380.592 410.263 380.592 409.084 380.592ZM438.253 375.277C440 375.277 441.747 375.277 443.494 375.277 446.13 379.865 448.767 384.453 451.403 389.041 453.975 384.453 456.547 379.865 459.12 375.277 460.866 375.277 462.613 375.277 464.36 375.277 464.382 383.226 464.403 391.176 464.424 399.125 462.474 399.125 460.523 399.125 458.573 399.125 458.552 394.912 458.53 390.699 458.509 386.485 456.58 389.915 454.651 393.345 452.721 396.774 451.778 396.774 450.835 396.774 449.892 396.774 447.974 393.458 446.055 390.142 444.137 386.826 444.137 390.926 444.137 395.025 444.137 399.125 442.176 399.125 440.215 399.125 438.253 399.125 438.253 391.176 438.253 383.226 438.253 375.277ZM426.408 375.277C428.53 375.277 430.652 375.277 432.774 375.277 432.774 383.226 432.774 391.176 432.774 399.125 430.652 399.125 428.53 399.125 426.408 399.125 426.408 391.176 426.408 383.226 426.408 375.277ZM402.718 375.277C406.148 375.277 409.577 375.277 413.006 375.277 415.043 375.277 416.811 375.635 418.311 376.35 419.812 377.066 420.969 378.088 421.784 379.416 422.598 380.745 423.005 382.306 423.005 384.101 423.005 385.827 422.625 387.332 421.864 388.615 421.103 389.898 420.015 390.903 418.601 391.63 420.219 394.128 421.837 396.626 423.455 399.125 421.183 399.125 418.911 399.125 416.639 399.125 415.278 397.013 413.917 394.9 412.556 392.788 411.399 392.788 410.241 392.788 409.084 392.788 409.084 394.9 409.084 397.013 409.084 399.125 406.962 399.125 404.84 399.125 402.718 399.125 402.718 391.176 402.718 383.226 402.718 375.277ZM384.57 375.277C386.659 375.277 388.749 375.277 390.839 375.277 394.161 383.226 397.484 391.176 400.806 399.125 398.598 399.125 396.391 399.125 394.183 399.125 393.593 397.58 393.004 396.036 392.414 394.492 389.242 394.492 386.07 394.492 382.898 394.492 382.308 396.036 381.719 397.58 381.129 399.125 378.965 399.125 376.8 399.125 374.635 399.125 377.947 391.176 381.258 383.226 384.57 375.277ZM351.953 375.277C354.054 375.277 356.154 375.277 358.255 375.277 358.255 378.582 358.255 381.886 358.255 385.191 361.159 381.886 364.063 378.582 366.968 375.277 369.304 375.277 371.64 375.277 373.977 375.277 370.912 378.797 367.847 382.318 364.781 385.838 368.007 390.267 371.233 394.696 374.459 399.125 371.994 399.125 369.529 399.125 367.064 399.125 364.921 396.24 362.777 393.356 360.634 390.471 359.841 391.369 359.048 392.266 358.255 393.163 358.255 395.15 358.255 397.138 358.255 399.125 356.154 399.125 354.054 399.125 351.953 399.125 351.953 391.176 351.953 383.226 351.953 375.277ZM341.8 375.277C343.922 375.277 346.044 375.277 348.166 375.277 348.166 383.226 348.166 391.176 348.166 399.125 346.044 399.125 343.922 399.125 341.8 399.125 341.8 391.176 341.8 383.226 341.8 375.277ZM321.494 375.277C323.616 375.277 325.738 375.277 327.86 375.277 327.86 381.443 327.86 387.61 327.86 393.776 331.44 393.776 335.019 393.776 338.599 393.776 338.599 395.559 338.599 397.342 338.599 399.125 332.897 399.125 327.196 399.125 321.494 399.125 321.494 391.176 321.494 383.226 321.494 375.277ZM303.346 375.277C305.436 375.277 307.525 375.277 309.615 375.277 312.938 383.226 316.26 391.176 319.582 399.125 317.374 399.125 315.167 399.125 312.959 399.125 312.37 397.58 311.78 396.036 311.191 394.492 308.018 394.492 304.846 394.492 301.674 394.492 301.085 396.036 300.495 397.58 299.906 399.125 297.741 399.125 295.576 399.125 293.411 399.125 296.723 391.176 300.034 383.226 303.346 375.277ZM269.037 375.277C272.585 375.277 276.132 375.277 279.679 375.277 282.144 375.277 284.33 375.765 286.238 376.742 288.146 377.719 289.625 379.104 290.675 380.898 291.725 382.693 292.25 384.793 292.25 387.201 292.25 389.608 291.725 391.709 290.675 393.504 289.625 395.298 288.146 396.683 286.238 397.66 284.33 398.637 282.144 399.125 279.679 399.125 276.132 399.125 272.585 399.125 269.037 399.125 269.037 391.176 269.037 383.226 269.037 375.277ZM250.889 375.277C252.979 375.277 255.068 375.277 257.158 375.277 260.481 383.226 263.803 391.176 267.125 399.125 264.917 399.125 262.71 399.125 260.502 399.125 259.913 397.58 259.323 396.036 258.734 394.492 255.561 394.492 252.389 394.492 249.217 394.492 248.628 396.036 248.038 397.58 247.449 399.125 245.284 399.125 243.119 399.125 240.954 399.125 244.266 391.176 247.577 383.226 250.889 375.277ZM213.196 375.277C214.943 375.277 216.69 375.277 218.437 375.277 221.073 379.865 223.709 384.453 226.346 389.041 228.918 384.453 231.49 379.865 234.062 375.277 235.809 375.277 237.556 375.277 239.303 375.277 239.324 383.226 239.345 391.176 239.367 399.125 237.416 399.125 235.466 399.125 233.515 399.125 233.494 394.912 233.473 390.699 233.451 386.485 231.522 389.915 229.593 393.345 227.664 396.774 226.721 396.774 225.778 396.774 224.835 396.774 222.916 393.458 220.998 390.142 219.08 386.826 219.08 390.926 219.08 395.025 219.08 399.125 217.118 399.125 215.157 399.125 213.196 399.125 213.196 391.176 213.196 383.226 213.196 375.277ZM186.121 375.277C188.243 375.277 190.365 375.277 192.487 375.277 192.487 378.264 192.487 381.25 192.487 384.237 195.381 384.237 198.274 384.237 201.168 384.237 201.168 381.25 201.168 378.264 201.168 375.277 203.29 375.277 205.412 375.277 207.534 375.277 207.534 383.226 207.534 391.176 207.534 399.125 205.412 399.125 203.29 399.125 201.168 399.125 201.168 396.025 201.168 392.924 201.168 389.824 198.274 389.824 195.381 389.824 192.487 389.824 192.487 392.924 192.487 396.025 192.487 399.125 190.365 399.125 188.243 399.125 186.121 399.125 186.121 391.176 186.121 383.226 186.121 375.277ZM167.973 375.277C170.063 375.277 172.153 375.277 174.242 375.277 177.565 383.226 180.887 391.176 184.209 399.125 182.001 399.125 179.794 399.125 177.586 399.125 176.997 397.58 176.407 396.036 175.818 394.492 172.646 394.492 169.473 394.492 166.301 394.492 165.712 396.036 165.122 397.58 164.533 399.125 162.368 399.125 160.203 399.125 158.038 399.125 161.35 391.176 164.661 383.226 167.973 375.277Z" fill-rule="evenodd"/><text fill="#000000" fill-opacity="0" font-family="Arial,Arial_MSFontService,sans-serif" font-size="23.8478" x="158.038" y="396.144">AHMADALIKARIM</text><path d="M472.188 389.83C473.542 389.83 474.652 390.274 475.518 391.164 476.385 392.053 476.818 393.215 476.818 394.649 476.818 396.055 476.378 397.217 475.498 398.135 474.618 399.053 473.515 399.512 472.188 399.512 470.889 399.512 469.792 399.053 468.898 398.135 468.005 397.217 467.558 396.055 467.558 394.649 467.558 393.215 467.998 392.053 468.878 391.164 469.758 390.274 470.861 389.83 472.188 389.83Z" fill-rule="evenodd"/><text fill="#000000" fill-opacity="0" font-family="Arial,Arial_MSFontService,sans-serif" font-size="9.68262" x="467.558" y="398.302">.</text><path d="M515.315 380.387C514.179 380.387 513.15 380.671 512.229 381.239 511.307 381.807 510.578 382.607 510.042 383.641 509.506 384.674 509.239 385.861 509.239 387.201 509.239 388.541 509.506 389.728 510.042 390.761 510.578 391.794 511.307 392.595 512.229 393.163 513.15 393.731 514.179 394.015 515.315 394.015 516.451 394.015 517.48 393.731 518.402 393.163 519.323 392.595 520.052 391.794 520.588 390.761 521.124 389.728 521.392 388.541 521.392 387.201 521.392 385.861 521.124 384.674 520.588 383.641 520.052 382.607 519.323 381.807 518.402 381.239 517.48 380.671 516.451 380.387 515.315 380.387ZM531.04 375.277C532.787 375.277 534.534 375.277 536.281 375.277 538.917 379.865 541.554 384.453 544.19 389.041 546.762 384.453 549.334 379.865 551.906 375.277 553.653 375.277 555.4 375.277 557.147 375.277 557.168 383.226 557.19 391.176 557.211 399.125 555.261 399.125 553.31 399.125 551.36 399.125 551.338 394.912 551.317 390.699 551.296 386.485 549.366 389.915 547.437 393.345 545.508 396.774 544.565 396.774 543.622 396.774 542.679 396.774 540.761 393.458 538.842 390.142 536.924 386.826 536.924 390.926 536.924 395.025 536.924 399.125 534.963 399.125 533.002 399.125 531.04 399.125 531.04 391.176 531.04 383.226 531.04 375.277ZM515.315 374.8C517.694 374.8 519.832 375.334 521.729 376.401 523.626 377.469 525.116 378.945 526.198 380.83 527.281 382.715 527.822 384.839 527.822 387.201 527.822 389.563 527.281 391.687 526.198 393.572 525.116 395.457 523.626 396.933 521.729 398.001 519.832 399.068 517.694 399.602 515.315 399.602 512.936 399.602 510.798 399.068 508.901 398.001 507.004 396.933 505.514 395.457 504.432 393.572 503.35 391.687 502.808 389.563 502.808 387.201 502.808 384.839 503.35 382.715 504.432 380.83 505.514 378.945 507.004 377.469 508.901 376.401 510.798 375.334 512.936 374.8 515.315 374.8ZM491.496 374.8C493.554 374.8 495.408 375.186 497.058 375.958 498.709 376.731 500.081 377.843 501.174 379.297 499.823 380.592 498.473 381.886 497.123 383.181 495.665 381.318 493.897 380.387 491.818 380.387 490.596 380.387 489.508 380.671 488.554 381.239 487.601 381.807 486.861 382.607 486.336 383.641 485.811 384.674 485.548 385.861 485.548 387.201 485.548 388.541 485.811 389.728 486.336 390.761 486.861 391.794 487.601 392.595 488.554 393.163 489.508 393.731 490.596 394.015 491.818 394.015 493.897 394.015 495.665 393.083 497.123 391.221 498.473 392.516 499.823 393.81 501.174 395.105 500.081 396.558 498.709 397.671 497.058 398.443 495.408 399.216 493.554 399.602 491.496 399.602 489.138 399.602 487.022 399.074 485.146 398.018 483.271 396.961 481.797 395.491 480.726 393.606 479.654 391.721 479.118 389.586 479.118 387.201 479.118 384.816 479.654 382.681 480.726 380.796 481.797 378.911 483.271 377.44 485.146 376.384 487.022 375.328 489.138 374.8 491.496 374.8Z" fill-rule="evenodd"/><text fill="#000000" fill-opacity="0" font-family="Arial,Arial_MSFontService,sans-serif" font-size="24.8018" x="479.118" y="396.502">COM</text><path d="M572.709 367.194C576.852 367.194 580.994 367.194 585.136 367.194 585.136 380.62 585.136 394.047 585.136 407.473 580.994 407.473 576.852 407.473 572.709 407.473 572.709 405.393 572.709 403.313 572.709 401.233 574.28 401.233 575.85 401.233 577.42 401.233 577.42 391.967 577.42 382.7 577.42 373.434 575.85 373.434 574.28 373.434 572.709 373.434 572.709 371.354 572.709 369.274 572.709 367.194Z" fill-rule="evenodd"/><text fill="#000000" fill-opacity="0" font-family="Arial,Arial_MSFontService,sans-serif" font-size="40.2796" x="572.709" y="402.438">]</text><path d="M438.476 9 449.923 11.6403C605.236 51.5763 720 192.472 720 360.156 720 558.892 558.795 720 359.938 720 167.295 720 9.98766 568.804 0.344101 378.673L0 365.075 2.61063 372.203C47.6405 478.601 153.058 553.257 275.923 553.257 439.743 553.257 572.546 420.535 572.546 256.814 572.546 154.488 520.67 64.2716 441.768 10.9986Z" fill="#25295D" fill-rule="evenodd"/><path d="M360.115 0C384.976 0 409.248 2.5165 432.691 7.30831L445.101 10.1694 446.826 11.2162C526.57 65.032 579 156.168 579 259.536 579 424.926 444.78 559 279.211 559 155.034 559 48.4913 483.583 2.9808 376.101L0.224114 368.577 0 359.724C0 161.054 161.229 0 360.115 0Z" fill="#BF1E24" fill-rule="evenodd"/><path d="M443.727 197.479 416.463 283.862 498 323.501 407.314 324.299 394.761 414 365.981 328.11 276.682 343.905 349.579 290.027 306.943 210.087 380.777 262.677ZM234.992 133 234.917 133.117C277.742 133.115 317.906 153.863 342.651 188.77 322.209 169.576 295.221 158.867 267.164 158.816 206.14 158.818 156.673 208.224 156.673 269.168 156.673 330.112 206.14 379.517 267.164 379.519 284.953 379.502 302.475 375.194 318.24 366.964 294.731 386.119 265.332 396.6 234.992 396.645 162.094 396.645 103 337.626 103 264.822 103 192.018 162.094 133 234.992 133Z" fill="#FFFFFF" fill-rule="evenodd"/></g></svg>