<svg width="720" height="720" xmlns="http://www.w3.org/2000/svg" xmlns:xlink="http://www.w3.org/1999/xlink" overflow="hidden"><defs><clipPath id="clip0"><rect x="0" y="0" width="720" height="720"/></clipPath></defs><g clip-path="url(#clip0)"><rect x="0" y="0" width="720" height="720" fill="#000000" fill-opacity="0"/><path d="M327.269 523.293C327.269 537.941 327.269 552.589 327.269 567.237 337.738 567.237 348.207 567.237 358.675 567.237 367.649 567.237 374.421 565.428 378.993 561.811 383.566 558.193 385.852 552.854 385.852 545.795 385.852 538.118 383.566 532.448 378.993 528.786 374.421 525.124 367.478 523.293 358.163 523.293 347.865 523.293 337.567 523.293 327.269 523.293ZM31.9193 523.293C31.9193 537.941 31.9193 552.589 31.9193 567.237 42.3882 567.237 52.857 567.237 63.3259 567.237 72.2991 567.237 79.0718 565.428 83.644 561.811 88.216 558.193 90.5021 552.854 90.5021 545.795 90.5021 538.118 88.216 532.448 83.644 528.786 79.0718 525.124 72.1282 523.293 62.8131 523.293 52.5152 523.293 42.2172 523.293 31.9193 523.293ZM509.769 459.892C501.778 483.188 493.788 506.483 485.797 529.779 502.12 529.779 518.443 529.779 534.766 529.779 526.903 506.483 519.041 483.188 511.179 459.892 510.709 459.892 510.239 459.892 509.769 459.892ZM327.269 456.715C327.269 470.437 327.269 484.158 327.269 497.88 336.199 497.88 345.13 497.88 354.061 497.88 363.29 497.88 370.084 496.049 374.443 492.387 378.801 488.725 380.98 483.541 380.98 476.834 380.98 470.04 378.801 464.988 374.443 461.679 370.084 458.37 363.461 456.715 354.573 456.715 345.472 456.715 336.37 456.715 327.269 456.715ZM31.9193 456.715C31.9193 470.437 31.9193 484.158 31.9193 497.88 40.8499 497.88 49.7804 497.88 58.711 497.88 67.9407 497.88 74.7347 496.049 79.0932 492.387 83.4517 488.725 85.6309 483.541 85.6309 476.834 85.6309 470.04 83.4517 464.988 79.0932 461.679 74.7347 458.37 68.1116 456.715 59.2237 456.715 50.1223 456.715 41.0208 456.715 31.9193 456.715ZM295.35 430.905C316.287 430.905 337.225 430.905 358.163 430.905 369.358 430.905 379.058 432.647 387.262 436.133 395.466 439.619 401.79 444.626 406.234 451.156 410.678 457.686 412.9 465.363 412.9 474.187 412.9 482.482 410.485 489.784 405.657 496.093 400.828 502.402 393.97 506.704 385.082 508.998 385.082 509.131 385.082 509.263 385.082 509.395 395.509 511.16 403.734 515.44 409.759 522.234 415.784 529.029 418.796 537.588 418.796 547.913 418.796 562.561 413.797 573.745 403.798 581.466 393.799 589.187 379.314 593.048 360.342 593.048 338.678 593.048 317.014 593.048 295.35 593.048 295.35 539 295.35 484.952 295.35 430.905ZM153.144 430.905C187.585 430.905 222.025 430.905 256.465 430.905 256.465 439.949 256.465 448.994 256.465 458.039 232.836 458.039 209.206 458.039 185.576 458.039 185.576 471.584 185.576 485.129 185.576 498.674 204.377 498.674 223.179 498.674 241.98 498.674 241.98 507.41 241.98 516.146 241.98 524.882 223.179 524.882 204.377 524.882 185.576 524.882 185.576 538.559 185.576 552.236 185.576 565.914 209.462 565.914 233.348 565.914 257.234 565.914 257.234 574.958 257.234 584.003 257.234 593.048 222.538 593.048 187.841 593.048 153.144 593.048 153.144 539 153.144 484.952 153.144 430.905ZM3.02532e-05 430.905C20.9377 430.905 41.8754 430.905 62.8131 430.905 74.0083 430.905 83.708 432.647 91.9122 436.133 100.116 439.619 106.44 444.626 110.884 451.156 115.328 457.686 117.55 465.363 117.55 474.187 117.55 482.482 115.136 489.784 110.307 496.093 105.479 502.402 98.6208 506.704 89.733 508.998 89.733 509.131 89.733 509.263 89.733 509.395 100.159 511.16 108.385 515.44 114.41 522.234 120.434 529.029 123.447 537.588 123.447 547.913 123.447 562.561 118.448 573.745 108.449 581.466 98.4498 589.187 83.9644 593.048 64.9923 593.048 43.3282 593.048 21.6641 593.048 3.02532e-05 593.048 3.02532e-05 539 3.02532e-05 484.952 3.02532e-05 430.905ZM659.11 428.39C670.903 428.39 682.056 430.706 692.567 435.339 703.079 439.971 711.668 446.126 718.333 453.803 711.625 460.642 704.916 467.481 698.208 474.319 693.593 468.76 687.888 464.481 681.094 461.48 674.3 458.48 667.228 456.98 659.879 456.98 652.7 456.98 647.167 458.679 643.278 462.076 639.39 465.473 637.446 469.687 637.446 474.716 637.446 479.217 638.856 482.835 641.676 485.57 644.496 488.306 649.538 490.821 656.802 493.115 662.998 495.1 669.194 497.086 675.39 499.071 685.901 502.424 694.405 506.285 700.9 510.653 707.395 515.021 712.202 520.249 715.321 526.338 718.44 532.426 720 539.706 720 548.177 720 556.913 717.906 564.811 713.719 571.87 709.531 578.929 703.186 584.555 694.682 588.746 686.179 592.938 675.732 595.033 663.34 595.033 650.692 595.033 638.877 592.982 627.896 588.879 616.914 584.775 607.15 578.885 598.604 571.208 604.501 562.693 610.398 554.178 616.294 545.662 623.217 552.722 630.63 557.95 638.535 561.347 646.44 564.745 654.495 566.443 662.699 566.443 679.535 566.443 687.953 560.531 687.953 548.707 687.953 543.765 686.35 539.728 683.145 536.596 679.941 533.463 674.193 530.485 665.904 527.661 658.597 525.235 651.29 522.808 643.983 520.381 631.164 516.146 621.593 510.388 615.269 503.108 608.945 495.828 605.783 486.453 605.783 474.981 605.783 466.775 607.898 459.12 612.128 452.016 616.358 444.913 622.512 439.199 630.588 434.876 638.664 430.552 648.171 428.39 659.11 428.39ZM492.078 427.993C504.085 427.993 516.093 427.993 528.1 427.993 548.824 483.011 569.548 538.03 590.272 593.048 578.906 593.048 567.539 593.048 556.173 593.048 551.986 580.694 547.798 568.34 543.611 555.987 521.348 555.987 499.086 555.987 476.824 555.987 472.593 568.34 468.363 580.694 464.133 593.048 452.639 593.048 441.144 593.048 429.65 593.048 450.459 538.03 471.269 483.011 492.078 427.993Z" fill="#FFFFFF" fill-rule="evenodd"/><text fill="#000000" fill-opacity="0" font-family="Arial,Arial_MSFontService,sans-serif" font-size="167.041" x="3.02532e-05" y="574.153">BEBAS</text><path d="M168.085 13.4656C186.42 10.8162 175.949-2.31823 147.51 0.361784 162.665-0.0779812 177.258 5.67086 168.085 13.4656ZM133.971 61.9425 132.397 61.0118C117.691 50.7719 107.179 35.694 102.067 22.6414L100.338 17.2607 97.7613 16.8618C75.5711 13.1894 53.6368 8.00315 38.257 3.82956 29.6569 10.0592 26.9369 23.8791 27.8777 33.4947 59.6187 47.0588 96.2582 59.6002 129.85 61.8096ZM144.013 62.004 149.576 61.8096C162.399 60.8888 174.476 58.0042 185.295 52.5825 187.391 37.4535 186.297 24.5645 181.46 10.8469 174.2 22.0788 148.645 23.1017 119.788 19.9306L110.503 18.7644 112.292 24.9225C117.211 36.6557 129.635 49.8106 142.121 60.4595ZM35.5573 88.9787 32.9702 84.5391C27.1107 74.2894 22.2636 64.1621 30.5773 64.06L31.2829 64.1009 31.4056 64.3771C33.9007 68.8986 38.9931 72.8777 43.6663 72.6323L44.2288 72.4991 42.5825 76.4888C41.2326 79.5576 39.5147 82.9743 37.3775 86.4112ZM201.002 135.727 200.849 128.658C199.58 105.284 194.662 84.9278 185.673 60.8175 162.849 71.8548 133.879 72.0492 105.073 66.9548L96.9639 65.349 98.9474 67.7424C110.799 80.1509 142.898 93.2341 163.227 102.921 179.896 110.88 192.607 121.109 200.184 134.152ZM199.233 175.447C199.54 172.512 199.805 169.637 200.031 166.824L200.491 160.369 200.45 158.068C199.079 136.944 186.727 120.945 151.631 105.172 128.582 94.8199 96.7082 82.166 87.4944 65.3693L86.4208 62.9144 83.5883 62.2393C62.3391 56.7051 42.071 48.9921 25.4439 41.4428 18.9504 45.6471 20.6173 53.4317 23.9407 57.1554L24.227 57.4109 22.8874 57.8507C18.6743 59.4977 14.2159 62.6382 14.5942 68.5815 14.8907 73.1231 23.1226 83.4141 28.5628 94.2776L29.4831 96.4053 26.4869 99.5252C19.789 105.397 11.1215 109.673 0.00189769 109.847 4.83054 112.067 9.59068 112.874 14.1545 112.629 19.1038 112.363 23.8282 110.839 28.164 108.496L32.7043 105.499 33.0622 107.248C33.3587 109.345 33.3792 111.381 33.0213 113.314 32.0805 118.439 24.8815 128.945 19.2674 134.182 22.8874 132.576 46.7648 118.306 42.5619 102.645 42.388 101.98 42.1122 101.233 41.7644 100.415L40.7623 98.3079 44.556 93.7561C46.6726 90.8404 48.452 87.8229 49.812 84.8562L51.121 81.5217 51.6937 82.1559C99.4181 132.269 167.768 115.923 199.233 175.447ZM181.276 198.003C189.038 193.011 192.126 189.145 197.269 182.373 194.375 176.266 190.633 170.619 185.203 165.535 187.545 175.887 185.959 187.181 181.276 198.003Z" fill="#FFFFFF" fill-rule="evenodd" transform="matrix(1 0 0 -1 1 357)"/><path d="M379.796 241.668C382.633 241.992 386.281 246.119 388.945 259.38 392.812 278.628 390.158 288.846 394.579 289.125 401.183 289.54 397.911 247.104 406.343 245.689 414.195 244.372 410.83 267.336 408.912 284.924 408.096 292.414 407.54 305.861 418.23 307.171 424.333 307.919 435.236 274.511 448.197 288.005 446.504 292.371 443.158 294.402 439.776 299.704 431.604 312.517 432.078 315.115 429.251 320.643 426.424 326.171 419.417 334.686 415.011 342.641 414.73 344.71 414.646 346.756 414.685 348.787L415.062 354.288 412.351 354.989C405.939 356.307 399.3 357 392.5 357L382.975 356.517 380.409 350.855C378.089 346.743 374.922 342.403 372.043 338.161 366.285 329.677 367.585 319.326 361.022 308.291 354.83 297.754 338.67 283.049 342.448 276.679 345.461 271.597 354.356 283.711 358.298 289 361.848 293.764 368.307 300.212 369.814 299.455 372.182 298.158 367.858 294.207 365.542 287.382 363.225 280.558 355.327 260.578 355.914 258.508 357.533 252.793 363.178 250.429 369.814 269.585 376.449 288.741 382.805 298.003 381.082 282.529 379.101 270.581 377.728 254.277 375.51 246.778 374.932 244.825 376.959 241.345 379.796 241.668ZM392.5 159C446.9 159 491 203.324 491 258 491 299.007 466.194 334.191 430.841 349.22L423.236 352.018 422.71 344.325C422.649 341.208 422.778 338.069 423.209 334.894 429.971 322.687 440.723 309.621 445.061 301.138 449.4 292.655 448.672 288.668 461.213 269.005 466.402 260.869 471.537 257.754 474.134 251.053 454.245 230.348 437.515 281.612 428.15 280.464 411.746 278.454 412.598 257.82 413.851 246.326 416.793 219.336 421.958 184.098 409.908 186.12 396.969 188.29 401.99 253.41 391.857 252.772 385.073 252.345 389.144 236.665 383.211 207.127 375.035 166.43 360.82 181.794 362.594 187.791 365.999 199.297 368.104 224.316 371.145 242.65 373.789 266.395 364.035 252.183 353.853 222.788 343.672 193.393 335.009 197.02 332.524 205.79 331.624 208.966 343.743 239.626 347.298 250.098 350.853 260.57 357.487 266.634 353.853 268.623 351.541 269.785 341.629 259.891 336.182 252.581 330.133 244.464 316.483 225.875 311.859 233.674 306.063 243.449 330.861 266.013 340.362 282.183 350.433 299.117 348.438 315 357.274 328.019 362.796 336.155 369.011 344.528 372.509 352.158L373.673 355.146 372.649 354.989C327.764 345.757 294 305.842 294 258 294 203.324 338.1 159 392.5 159Z" fill="#FFFFFF" fill-rule="evenodd"/><path d="M671.003 293.124C669.978 292.983 669.034 293.872 667.151 295.648 665.755 296.966 663.775 298.731 662.752 299.572 661.729 300.412 661.01 301.293 661.155 301.529 661.3 301.765 662.296 302.057 663.369 302.179 664.442 302.301 665.513 302.594 665.749 302.832 666.596 303.684 667.933 311.456 668.623 319.529 669.07 324.76 669.437 327.388 669.684 327.117 669.753 327.043 670.14 326.023 670.544 324.852 671.072 323.324 671.37 320.543 671.598 314.993 671.967 306.041 672.162 305.526 675.615 304.37 678.231 303.494 678.643 303.175 678.899 301.827 679.067 300.94 678.459 300.077 675.34 296.772 673.133 294.434 672.028 293.265 671.003 293.124ZM658.172 230.418C659.707 230.347 661.117 230.465 661.465 230.815 661.832 231.184 661.113 232.261 658.548 235.186 655.905 238.198 654.971 239.613 654.376 241.506 653.472 244.378 652.793 244.623 649.297 243.342 646.027 242.144 642.877 240.308 641.724 238.929 640.443 237.398 640.447 237.323 641.874 235.947 642.667 235.184 644.617 234.331 647.877 233.324 650.533 232.504 653.345 231.527 654.125 231.155 654.975 230.749 656.636 230.489 658.172 230.418ZM711.279 219.607C712.766 219.231 714.891 220.475 717.098 223.013 719.474 225.746 720.058 227.904 719.996 233.726 719.939 239.083 719.479 241.184 717.832 243.62 716.707 245.283 710.121 251.491 702.259 258.298 695.618 264.047 694.636 264.706 692.43 264.899 690.578 265.061 690.276 264.941 688.406 263.302 687.294 262.328 685.532 260.478 684.491 259.193 682.846 257.161 682.598 256.592 682.598 254.848 682.598 252.17 683.253 251.138 690.428 242.493 691.47 241.238 694.249 238.025 697.669 234.122 708.338 221.946 710.299 219.854 711.279 219.607ZM689.756 197.743C690.881 197.743 692.544 198.391 695.337 199.915 702.702 203.935 707.347 207.903 708.382 211.058 708.816 212.382 708.766 212.852 708.015 214.512 707.536 215.569 707.144 216.595 707.144 216.794 707.144 217.512 702.693 224.456 699.565 228.616 695.416 234.134 682.201 247.699 679.888 248.814 677.139 250.14 674.384 250.229 670.96 249.102 666.811 247.736 665.329 246.908 663.043 244.678 660.485 242.184 660.218 240.992 661.623 238.338 662.219 237.21 662.707 236.124 662.707 235.924 662.707 235.724 663.061 235.052 663.492 234.43 663.924 233.808 664.41 232.746 664.573 232.069 664.856 230.894 668.711 225.127 672.86 219.673 674.623 217.355 675.898 215.579 681.685 207.375 682.696 205.942 684.565 203.189 685.838 201.257 688.06 197.885 688.218 197.743 689.756 197.743ZM615.142 189.321C615.811 189.202 616.667 189.228 618.162 189.321 620.907 189.492 622.137 189.843 625.676 191.467 628.004 192.534 630.194 193.531 630.543 193.681 630.893 193.831 633.273 195.095 635.833 196.49 638.394 197.885 644.773 201.156 650.01 203.76 659.847 208.65 661.291 209.52 662.163 211.086 662.748 212.136 662.836 218.152 662.312 221.361 662.05 222.967 661.654 223.734 660.662 224.555 658.201 226.59 646.792 230.106 642.647 230.106 639.404 230.106 638.027 229.385 633.608 225.37 630.437 222.49 629.7 222.015 628.39 222.015 626.425 222.015 625.934 222.596 623.579 227.701 620.319 234.767 620.75 235.585 629.908 239.701 630.607 240.015 632.471 240.852 634.051 241.562 638.985 243.777 641.866 247.016 651.7 261.404 654.101 264.917 657.083 269.266 658.328 271.069 659.573 272.872 660.591 274.539 660.591 274.774 660.591 275.009 660.851 275.354 661.169 275.542 661.487 275.729 662.069 276.517 662.463 277.293 662.858 278.069 663.407 278.629 663.685 278.538 664.62 278.227 664.445 276.693 663.201 274.313 661.329 270.733 658.412 265.768 657.618 264.811 657.23 264.342 655.902 262.139 654.667 259.914 653.432 257.689 651.975 255.259 651.428 254.513 650.882 253.767 650.434 253.039 650.434 252.894 650.434 252.749 649.958 251.925 649.376 251.063 648.794 250.201 648.318 249.039 648.318 248.481 648.318 247.495 648.394 247.472 650.963 247.698 654.338 247.994 663.93 250.175 669.653 251.949 672.918 252.96 675.532 254.902 683.754 262.421 686.368 264.811 689.288 267.213 690.242 267.759L691.978 268.751 694.316 267.846C696.219 267.109 697.861 265.781 703.132 260.717 710.087 254.035 712.105 252.493 713.296 252.952 713.983 253.218 714.021 253.842 713.785 260.942 713.393 272.664 712.479 278.287 709.676 286.203 707.628 291.986 705.573 295.599 700.649 302.07 699.49 303.593 697.999 306.039 697.335 307.506 694.823 313.054 694.792 313.362 694.503 335.164 694.277 352.225 694.141 355.365 693.602 355.898 693.058 356.435 687.938 356.568 657.805 356.828 624.665 357.115 622.627 357.089 622.361 356.394 621.815 354.963 622.088 348.928 622.885 344.79 623.328 342.49 623.823 339.363 623.984 337.84 624.146 336.317 624.544 333.77 624.869 332.179 625.195 330.587 625.753 326.754 626.109 323.662 626.465 320.569 626.853 317.725 626.971 317.341 627.088 316.957 627.349 313.604 627.55 309.889 627.983 301.867 628.295 302.707 622.16 295.363 615.16 286.983 612.152 282.733 598.726 262.256 587.063 244.467 584.017 239.441 584 237.962 583.98 236.202 589.078 226.612 595.705 215.939 598.353 211.674 604.482 202.169 610.139 193.554 610.96 192.303 612.362 190.793 613.255 190.199 613.995 189.706 614.474 189.441 615.142 189.321ZM668.178 175.256C670.679 175.407 671.43 175.697 675.615 178.122 682.48 182.101 683.717 183.118 685.199 186.003 687.682 190.837 686.762 194.809 681.255 203.022 676.9 209.518 671.132 216.771 668.651 218.871 667.439 219.898 667.401 219.902 666.964 219.08 666.718 218.618 666.516 216.783 666.516 215.004 666.516 209.138 664.849 206.906 657.884 203.443 652.319 200.677 652.127 200.526 652.127 198.941 652.127 197.476 652.38 196.958 655.315 192.421 656.527 190.547 658.766 186.507 660.292 183.444 661.817 180.38 663.589 177.246 664.23 176.48 665.364 175.124 665.469 175.092 668.178 175.256ZM642.415 159C643.557 158.989 652.523 164.223 655.285 166.513 658.76 169.393 659.914 171.286 659.872 174.04 659.846 175.811 659.301 177.232 656.594 182.589 649.811 196.013 647.419 198.003 640.912 195.633 639.748 195.209 636.415 193.589 633.506 192.031 630.596 190.475 627.586 188.871 626.817 188.468 626.048 188.066 625.054 187.347 624.608 186.871 623.848 186.06 623.84 185.927 624.477 184.742 624.851 184.047 625.447 182.903 625.801 182.201 626.155 181.498 628.451 177.953 630.904 174.323 633.357 170.693 636.584 165.902 638.075 163.678 640.893 159.472 641.322 159.011 642.415 159Z" fill="#FFFFFF" fill-rule="evenodd"/></g></svg>