<svg width="720" height="720" xmlns="http://www.w3.org/2000/svg" xmlns:xlink="http://www.w3.org/1999/xlink" overflow="hidden"><defs><clipPath id="clip0"><rect x="0" y="0" width="720" height="720"/></clipPath></defs><g clip-path="url(#clip0)"><rect x="0" y="0" width="720" height="720" fill="#000000" fill-opacity="0"/><path d="M327.269 522.238C327.269 536.886 327.269 551.534 327.269 566.182 337.738 566.182 348.207 566.182 358.675 566.182 367.649 566.182 374.421 564.373 378.993 560.755 383.566 557.137 385.852 551.799 385.852 544.74 385.852 537.062 383.566 531.393 378.993 527.731 374.421 524.069 367.478 522.238 358.163 522.238 347.865 522.238 337.567 522.238 327.269 522.238ZM31.9193 522.238C31.9193 536.886 31.9193 551.534 31.9193 566.182 42.3882 566.182 52.857 566.182 63.3259 566.182 72.2991 566.182 79.0718 564.373 83.644 560.755 88.216 557.137 90.5021 551.799 90.5021 544.74 90.5021 537.062 88.216 531.393 83.644 527.731 79.0718 524.069 72.1282 522.238 62.8131 522.238 52.5152 522.238 42.2172 522.238 31.9193 522.238ZM509.769 458.837C501.778 482.132 493.788 505.428 485.797 528.724 502.12 528.724 518.443 528.724 534.766 528.724 526.903 505.428 519.041 482.132 511.179 458.837 510.709 458.837 510.239 458.837 509.769 458.837ZM327.269 455.66C327.269 469.381 327.269 483.103 327.269 496.824 336.199 496.824 345.13 496.824 354.061 496.824 363.29 496.824 370.084 494.993 374.443 491.331 378.801 487.669 380.98 482.485 380.98 475.779 380.98 468.984 378.801 463.933 374.443 460.624 370.084 457.314 363.461 455.66 354.573 455.66 345.472 455.66 336.37 455.66 327.269 455.66ZM31.9193 455.66C31.9193 469.381 31.9193 483.103 31.9193 496.824 40.8499 496.824 49.7804 496.824 58.711 496.824 67.9407 496.824 74.7347 494.993 79.0932 491.331 83.4517 487.669 85.6309 482.485 85.6309 475.779 85.6309 468.984 83.4517 463.933 79.0932 460.624 74.7347 457.314 68.1116 455.66 59.2237 455.66 50.1223 455.66 41.0208 455.66 31.9193 455.66ZM295.35 429.849C316.287 429.849 337.225 429.849 358.163 429.849 369.358 429.849 379.058 431.592 387.262 435.078 395.466 438.563 401.79 443.571 406.234 450.101 410.678 456.631 412.9 464.308 412.9 473.132 412.9 481.426 410.485 488.728 405.657 495.038 400.828 501.347 393.97 505.649 385.082 507.943 385.082 508.075 385.082 508.208 385.082 508.34 395.509 510.105 403.734 514.385 409.759 521.179 415.784 527.974 418.796 536.533 418.796 546.857 418.796 561.505 413.797 572.69 403.798 580.411 393.799 588.132 379.314 591.993 360.342 591.993 338.678 591.993 317.014 591.993 295.35 591.993 295.35 537.945 295.35 483.897 295.35 429.849ZM153.144 429.849C187.585 429.849 222.025 429.849 256.465 429.849 256.465 438.894 256.465 447.939 256.465 456.984 232.836 456.984 209.206 456.984 185.576 456.984 185.576 470.529 185.576 484.074 185.576 497.619 204.377 497.619 223.179 497.619 241.98 497.619 241.98 506.355 241.98 515.09 241.98 523.826 223.179 523.826 204.377 523.826 185.576 523.826 185.576 537.504 185.576 551.181 185.576 564.858 209.462 564.858 233.348 564.858 257.234 564.858 257.234 573.903 257.234 582.948 257.234 591.993 222.538 591.993 187.841 591.993 153.144 591.993 153.144 537.945 153.144 483.897 153.144 429.849ZM3.02532e-05 429.849C20.9377 429.849 41.8754 429.849 62.8131 429.849 74.0083 429.849 83.708 431.592 91.9122 435.078 100.116 438.563 106.44 443.571 110.884 450.101 115.328 456.631 117.55 464.308 117.55 473.132 117.55 481.426 115.136 488.728 110.307 495.038 105.479 501.347 98.6208 505.649 89.733 507.943 89.733 508.075 89.733 508.208 89.733 508.34 100.159 510.105 108.385 514.385 114.41 521.179 120.434 527.974 123.447 536.533 123.447 546.857 123.447 561.505 118.448 572.69 108.449 580.411 98.4498 588.132 83.9644 591.993 64.9923 591.993 43.3282 591.993 21.6641 591.993 3.02532e-05 591.993 3.02532e-05 537.945 3.02532e-05 483.897 3.02532e-05 429.849ZM659.11 427.335C670.903 427.335 682.056 429.651 692.567 434.284 703.079 438.916 711.668 445.071 718.333 452.748 711.625 459.587 704.916 466.425 698.208 473.264 693.593 467.705 687.888 463.425 681.094 460.425 674.3 457.425 667.228 455.925 659.879 455.925 652.7 455.925 647.167 457.623 643.278 461.021 639.39 464.418 637.446 468.631 637.446 473.661 637.446 478.161 638.856 481.779 641.676 484.515 644.496 487.25 649.538 489.765 656.802 492.059 662.998 494.045 669.194 496.03 675.39 498.016 685.901 501.369 694.405 505.229 700.9 509.597 707.395 513.965 712.202 519.194 715.321 525.282 718.44 531.371 720 538.651 720 547.122 720 555.858 717.906 563.755 713.719 570.815 709.531 577.874 703.186 583.499 694.682 587.691 686.179 591.882 675.732 593.978 663.34 593.978 650.692 593.978 638.877 591.926 627.896 587.823 616.914 583.72 607.15 577.83 598.604 570.153 604.501 561.638 610.398 553.122 616.294 544.607 623.217 551.666 630.63 556.895 638.535 560.292 646.44 563.689 654.495 565.388 662.699 565.388 679.535 565.388 687.953 559.476 687.953 547.651 687.953 542.71 686.35 538.673 683.145 535.54 679.941 532.408 674.193 529.43 665.904 526.606 658.597 524.179 651.29 521.753 643.983 519.326 631.164 515.09 621.593 509.333 615.269 502.053 608.945 494.773 605.783 485.397 605.783 473.926 605.783 465.719 607.898 458.065 612.128 450.961 616.358 443.858 622.512 438.144 630.588 433.82 638.664 429.496 648.171 427.335 659.11 427.335ZM492.078 426.937C504.085 426.937 516.093 426.937 528.1 426.937 548.824 481.956 569.548 536.974 590.272 591.993 578.906 591.993 567.539 591.993 556.173 591.993 551.986 579.639 547.798 567.285 543.611 554.931 521.348 554.931 499.086 554.931 476.824 554.931 472.593 567.285 468.363 579.639 464.133 591.993 452.639 591.993 441.144 591.993 429.65 591.993 450.459 536.974 471.269 481.956 492.078 426.937Z" fill="#FFFFFF" fill-rule="evenodd"/><text fill="#000000" fill-opacity="0" font-family="Arial,Arial_MSFontService,sans-serif" font-size="167.041" x="3.02532e-05" y="573.098">BEBAS</text><path d="M202.371 16.118C224.446 12.9467 211.839-2.77485 177.599 0.433045 195.846-0.0933412 213.415 6.78784 202.371 16.118ZM161.299 74.1433 159.403 73.0293C141.698 60.7725 129.042 42.7246 122.886 27.1011L120.805 20.6606 117.703 20.1831C90.9861 15.7874 64.5776 9.57953 46.0607 4.58386 35.7064 12.0406 32.4314 28.5826 33.5641 40.0921 71.7797 56.328 115.893 71.3396 156.337 73.9843ZM173.389 74.2169 180.086 73.9843C195.525 72.882 210.066 69.4293 223.092 62.9397 225.616 44.8307 224.298 29.403 218.474 12.9834 209.733 26.4276 178.966 27.6521 144.222 23.8563L133.043 22.4605 135.198 29.8315C141.12 43.8757 156.078 59.6217 171.111 72.3682ZM42.8103 106.505 39.6954 101.191C32.6408 88.9222 26.805 76.8001 36.8144 76.6779L37.664 76.7269 37.8117 77.0575C40.8158 82.4695 46.9469 87.2324 52.5734 86.9387L53.2506 86.7792 51.2685 91.5548C49.6433 95.228 47.575 99.3177 45.0017 103.432ZM242.002 162.461 241.818 154C240.291 126.022 234.369 101.656 223.547 72.7967 196.067 86.008 161.188 86.2407 126.506 80.1428L116.743 78.2208 119.131 81.0856C133.4 95.9382 172.047 111.598 196.522 123.194 216.591 132.72 231.894 144.964 241.017 160.576ZM239.872 210.005C240.242 206.491 240.562 203.05 240.833 199.683L241.387 191.957 241.338 189.202C239.688 163.918 224.815 144.768 182.561 125.887 154.811 113.497 116.435 98.3502 105.342 78.2451L104.049 75.3066 100.639 74.4986C75.055 67.8743 50.6526 58.6421 30.634 49.6058 22.816 54.6382 24.8228 63.9562 28.8241 68.4133L29.1689 68.7191 27.556 69.2456C22.4835 71.2169 17.1156 74.976 17.5711 82.0899 17.9282 87.5262 27.8392 99.8441 34.389 112.847L35.4971 115.394 31.8897 119.129C23.8255 126.157 13.3901 131.275 0.00228479 131.483 5.81588 134.14 11.547 135.107 17.0417 134.814 23.0006 134.495 28.6887 132.671 33.9089 129.867L39.3753 126.279 39.8062 128.373C40.1632 130.883 40.1879 133.32 39.757 135.634 38.6243 141.768 29.9568 154.343 23.1976 160.612 27.556 158.69 56.3039 141.609 51.2437 122.863 51.0343 122.067 50.7022 121.173 50.2835 120.194L49.077 117.672 53.6445 112.223C56.1929 108.733 58.3352 105.121 59.9727 101.57L61.5487 97.579 62.2382 98.3381C119.697 158.322 201.989 138.756 239.872 210.005ZM218.253 237.004C227.598 231.029 231.316 226.4 237.508 218.295 234.024 210.985 229.518 204.226 222.981 198.141 225.8 210.532 223.892 224.049 218.253 237.004Z" fill="#FFFFFF" fill-rule="evenodd" transform="matrix(1 0 0 -1 239 363)"/></g></svg>