<svg width="720" height="720" xmlns="http://www.w3.org/2000/svg" xmlns:xlink="http://www.w3.org/1999/xlink" overflow="hidden"><defs><clipPath id="clip0"><rect x="0" y="0" width="720" height="720"/></clipPath></defs><g clip-path="url(#clip0)"><rect x="0" y="0" width="720" height="720" fill="#000000" fill-opacity="0"/><path d="M330.469 370.628C330.469 383.844 330.469 397.06 330.469 410.276 339.914 410.276 349.36 410.276 358.805 410.276 366.901 410.276 373.011 408.644 377.136 405.38 381.261 402.115 383.324 397.299 383.324 390.93 383.324 384.003 381.261 378.888 377.136 375.584 373.011 372.28 366.747 370.628 358.342 370.628 349.051 370.628 339.76 370.628 330.469 370.628ZM63.9983 370.628C63.9983 383.844 63.9983 397.06 63.9983 410.276 73.4435 410.276 82.8888 410.276 92.334 410.276 100.43 410.276 106.54 408.644 110.665 405.38 114.79 402.115 116.853 397.299 116.853 390.93 116.853 384.003 114.79 378.888 110.665 375.584 106.54 372.28 100.276 370.628 91.8714 370.628 82.5804 370.628 73.2893 370.628 63.9983 370.628ZM495.125 313.426C487.915 334.444 480.706 355.462 473.497 376.48 488.224 376.48 502.951 376.48 517.677 376.48 510.584 355.462 503.49 334.444 496.397 313.426 495.973 313.426 495.549 313.426 495.125 313.426ZM330.469 310.56C330.469 322.94 330.469 335.32 330.469 347.7 338.527 347.7 346.584 347.7 354.641 347.7 362.968 347.7 369.098 346.048 373.031 342.744 376.963 339.44 378.929 334.763 378.929 328.712 378.929 322.582 376.963 318.024 373.031 315.038 369.098 312.053 363.123 310.56 355.104 310.56 346.892 310.56 338.681 310.56 330.469 310.56ZM63.9983 310.56C63.9983 322.94 63.9983 335.32 63.9983 347.7 72.0557 347.7 80.113 347.7 88.1704 347.7 96.4976 347.7 102.627 346.048 106.56 342.744 110.492 339.44 112.458 334.763 112.458 328.712 112.458 322.582 110.492 318.024 106.56 315.038 102.627 312.053 96.6518 310.56 88.633 310.56 80.4214 310.56 72.2099 310.56 63.9983 310.56ZM301.671 287.273C320.561 287.273 339.452 287.273 358.342 287.273 368.443 287.273 377.194 288.846 384.596 291.99 391.998 295.135 397.704 299.653 401.713 305.545 405.723 311.436 407.727 318.362 407.727 326.324 407.727 333.807 405.549 340.395 401.193 346.088 396.836 351.78 390.649 355.661 382.63 357.731 382.63 357.85 382.63 357.97 382.63 358.089 392.037 359.682 399.458 363.543 404.894 369.673 410.329 375.803 413.047 383.526 413.047 392.84 413.047 406.056 408.537 416.147 399.516 423.113 390.495 430.08 377.425 433.563 360.308 433.563 340.763 433.563 321.217 433.563 301.671 433.563 301.671 384.799 301.671 336.036 301.671 287.273ZM173.37 287.273C204.443 287.273 235.516 287.273 266.589 287.273 266.589 295.434 266.589 303.594 266.589 311.754 245.269 311.754 223.95 311.754 202.631 311.754 202.631 323.975 202.631 336.196 202.631 348.416 219.594 348.416 236.557 348.416 253.52 348.416 253.52 356.298 253.52 364.18 253.52 372.061 236.557 372.061 219.594 372.061 202.631 372.061 202.631 384.401 202.631 396.742 202.631 409.082 224.182 409.082 245.732 409.082 267.283 409.082 267.283 417.242 267.283 425.402 267.283 433.563 235.978 433.563 204.674 433.563 173.37 433.563 173.37 384.799 173.37 336.036 173.37 287.273ZM35.2 287.273C54.0905 287.273 72.9809 287.273 91.8714 287.273 101.972 287.273 110.723 288.846 118.125 291.99 125.527 295.135 131.233 299.653 135.242 305.545 139.252 311.436 141.256 318.362 141.256 326.324 141.256 333.807 139.078 340.395 134.722 346.088 130.365 351.78 124.178 355.661 116.159 357.731 116.159 357.85 116.159 357.97 116.159 358.089 125.566 359.682 132.987 363.543 138.423 369.673 143.859 375.803 146.577 383.526 146.577 392.84 146.577 406.056 142.066 416.147 133.045 423.113 124.024 430.08 110.955 433.563 93.8375 433.563 74.2917 433.563 54.7459 433.563 35.2 433.563 35.2 384.799 35.2 336.036 35.2 287.273ZM629.863 285.004C640.504 285.004 650.566 287.094 660.05 291.274 669.533 295.454 677.282 301.007 683.296 307.933 677.244 314.103 671.191 320.273 665.138 326.443 660.975 321.427 655.828 317.566 649.698 314.859 643.569 312.152 637.188 310.799 630.557 310.799 624.081 310.799 619.088 312.332 615.58 315.397 612.072 318.462 610.318 322.263 610.318 326.801 610.318 330.862 611.59 334.126 614.134 336.594 616.679 339.062 621.228 341.331 627.782 343.401 633.372 345.192 638.962 346.983 644.552 348.775 654.036 351.8 661.707 355.283 667.567 359.224 673.427 363.165 677.764 367.882 680.579 373.375 683.393 378.868 684.8 385.436 684.8 393.079 684.8 400.961 682.911 408.086 679.133 414.455 675.355 420.825 669.63 425.9 661.958 429.681 654.286 433.463 644.86 435.354 633.68 435.354 622.269 435.354 611.609 433.503 601.701 429.801 591.793 426.099 582.984 420.785 575.274 413.858 580.594 406.176 585.914 398.493 591.234 390.81 597.48 397.179 604.169 401.896 611.301 404.962 618.433 408.027 625.7 409.559 633.102 409.559 648.291 409.559 655.886 404.225 655.886 393.557 655.886 389.099 654.44 385.456 651.549 382.63 648.658 379.804 643.472 377.117 635.993 374.569 629.401 372.38 622.808 370.19 616.216 368.001 604.651 364.18 596.015 358.985 590.309 352.417 584.604 345.849 581.751 337.39 581.751 327.04 581.751 319.636 583.659 312.73 587.476 306.321 591.292 299.912 596.844 294.757 604.13 290.856 611.416 286.955 619.994 285.004 629.863 285.004ZM479.164 284.646C489.997 284.646 500.83 284.646 511.663 284.646 530.361 334.285 549.059 383.924 567.756 433.563 557.502 433.563 547.247 433.563 536.992 433.563 533.214 422.417 529.436 411.271 525.658 400.125 505.572 400.125 485.487 400.125 465.401 400.125 461.584 411.271 457.768 422.417 453.951 433.563 443.581 433.563 433.21 433.563 422.84 433.563 441.614 383.924 460.389 334.285 479.164 284.646Z" fill="#FFFFFF" fill-rule="evenodd"/><text fill="#000000" fill-opacity="0" font-family="Arial,Arial_MSFontService,sans-serif" font-size="150.708" x="35.2" y="416.515">BEBAS</text></g></svg>