<svg width="720" height="720" xmlns="http://www.w3.org/2000/svg" xmlns:xlink="http://www.w3.org/1999/xlink" overflow="hidden"><defs><clipPath id="clip0"><rect x="0" y="0" width="720" height="720"/></clipPath></defs><g clip-path="url(#clip0)"><rect x="0" y="0" width="720" height="720" fill="#000000" fill-opacity="0"/><path d="M141.176 392.922C141.31 396.421 142.009 399.852 143.971 402.914 144.858 404.299 145.879 405.813 147.807 405.127 149.594 404.493 149.325 402.717 149.124 401.312 148.553 397.221 147.538 393.231 145.603 389.545 145.079 388.562 144.589 387.17 143.138 387.413 141.707 387.64 141.713 389.128 141.418 390.205 141.189 391.038 141.25 391.953 141.176 392.922M149.251 419.633C149.151 416.591 141.639 407.502 138.535 406.694 136.688 406.216 135.714 406.775 135.888 408.868 136.211 412.776 142.97 420.6 146.732 421.475 148.405 421.86 149.319 421.489 149.251 419.633M158.993 413.961C158.711 410.785 158.55 406.836 157.011 403.141 156.629 402.234 156.219 401.104 154.969 401.111 153.74 401.117 153.363 402.24 152.92 403.134 150.622 407.704 151.63 414.519 155.13 418.36 155.936 419.248 156.803 420.156 158.1 419.605 159.282 419.107 158.913 417.869 158.98 416.894 159.034 416.167 158.993 415.433 158.993 413.961M226.461 558.017C226.75 557.991 228.369 557.964 229.948 557.681 231.063 557.487 232.3 557.177 232.541 555.709 232.776 554.297 231.849 553.604 230.835 552.938 224.916 549.09 218.359 548.282 211.512 548.914 210.491 549.009 209.389 549.271 209.121 550.475 208.859 551.646 209.691 552.359 210.511 553.005 214.811 556.376 219.655 558.145 226.461 558.017M163.011 427.094C162.85 431.291 163.166 435.947 166.337 439.87 167.244 440.993 168.151 442.521 169.81 442.171 171.597 441.794 171.503 439.949 171.678 438.558 172.276 433.949 171.335 429.448 170.052 425.108 169.273 422.478 168.93 417.936 165.719 418.286 161.741 418.716 163.737 423.325 163.018 426.084 162.978 426.226 163.011 426.381 163.011 427.094M258.146 553.746C258.119 548.248 256.997 543.25 255.391 538.344 254.887 536.812 254.403 534.839 252.589 534.779 250.587 534.705 250.419 536.905 249.996 538.338 248.296 544.104 248.908 549.722 251.83 554.95 252.925 556.915 254.209 559.955 256.674 559.329 259.194 558.683 257.615 555.461 258.146 553.746M230.647 525.561C230.371 520.468 229.626 515.53 227.684 510.861 227.093 509.428 226.488 507.518 224.486 507.687 222.679 507.847 222.578 509.731 222.235 511.083 220.804 516.715 221.059 522.211 224.17 527.265 225.42 529.302 226.649 532.693 229.256 531.913 231.715 531.173 230.183 527.721 230.647 525.561M205.654 489.441C205.654 484.031 204.082 477.479 202.496 474.868 201.475 473.185 200.668 472.687 199.399 474.646 196.134 479.678 197.175 494.378 201.112 499.168 202.852 501.281 203.658 500.413 204.317 498.409 205.325 495.314 205.533 492.105 205.654 489.441M195.072 470.743C194.669 466.928 194.434 462.353 192.163 458.27 190.873 455.943 188.985 455.781 188.071 458.351 185.498 465.55 185.767 472.754 189.402 479.563 190.725 482.026 192.465 482.127 193.675 479.174 194.696 476.685 195.038 474.101 195.072 470.743M244.917 539.703C244.957 533.939 243.661 528.994 241.383 524.297 240.758 523.005 240.281 521.054 238.689 521.149 236.741 521.262 236.653 523.443 236.277 524.936 234.906 530.413 235.464 535.795 237.916 540.828 239.031 543.122 240.577 546.66 243.096 546.123 246.227 545.456 244.285 541.574 244.917 539.703M168.715 475.56C171.208 475.729 172.236 474.532 171.228 472.291 168.856 467.023 157.509 460.033 151.657 460.214 150.091 460.261 148.808 460.564 149.991 462.488 154.277 469.465 160.297 474.027 168.715 475.56M183.731 453.957C183.704 449.531 183.456 445.137 181.306 441.107 179.982 438.632 178.618 438.148 176.925 440.891 173.385 446.623 174.103 456.494 178.43 461.761 180.546 464.339 181.931 463.228 182.871 460.927 183.771 458.735 183.798 456.332 183.731 453.957M230.936 562.376C229.128 562.376 228.537 562.323 227.959 562.383 226.152 562.586 223.639 561.846 223.028 564.119 222.45 566.258 224.64 567.397 226.246 568.351 231.876 571.708 237.977 572.664 244.413 571.541 245.542 571.346 246.899 571.365 247.154 569.858 247.389 568.485 246.308 567.753 245.401 567.04 240.799 563.379 235.35 562.552 230.936 562.376M208.731 501.659C208.697 507.007 209.826 511.898 214.052 515.611 214.804 516.271 215.423 517.32 216.625 516.875 217.76 516.459 217.908 515.336 217.996 514.306 218.56 507.403 217.29 500.837 214.119 494.688 213.481 493.45 212.695 491.6 211.062 491.943 209.215 492.327 209.288 494.325 209.181 495.939 209.047 497.844 208.879 499.747 208.731 501.659M186.237 515.41C185.001 515.706 183.435 514.859 182.622 516.352 182.072 517.375 182.535 518.451 183.328 519.165 189.005 524.297 195.67 526.975 203.349 526.848 204.666 526.827 206.091 526.269 206.567 524.869 207.112 523.288 205.741 522.454 204.727 521.686 199.258 517.549 192.895 516.014 186.237 515.41M191.101 510.861C191.86 510.868 193.097 510.896 193.869 509.819 194.642 508.75 193.849 507.854 193.224 507.074 188.226 500.851 181.608 497.46 173.841 496.161 172.988 496.02 172.014 496.027 171.416 496.807 170.744 497.689 171.315 498.522 171.846 499.182 176.771 505.257 182.515 510.021 191.101 510.861M179.129 492.892C180.715 492.758 182.508 493.33 183.281 491.774 184.188 489.952 182.522 488.788 181.433 487.718 178.497 484.825 175.145 482.47 171.47 480.6 169.004 479.348 166.673 477.747 163.831 477.391 161.076 477.041 160.095 478.252 161.607 480.607 165.786 487.119 171.04 492.198 179.129 492.892M151.838 437.34C153.484 437.615 154.532 437.595 155.11 436.518 155.762 435.335 155.312 434.245 154.539 433.27 150.044 427.631 144.488 423.494 137.588 421.26 136.439 420.883 135.216 420.487 134.363 421.617 133.57 422.652 133.859 423.918 134.511 424.934 138.777 431.527 144.851 435.564 151.838 437.34M200.259 532.175C198.478 532.538 196.698 531.603 195.462 533.071 194.897 533.73 195.515 534.409 195.939 535.015 199.54 540.168 211.674 544.944 217.66 543.492 218.721 543.229 220.199 543.37 220.468 541.837 220.697 540.504 219.769 539.717 218.782 538.984 213.199 534.833 206.769 533.071 200.259 532.175M160.821 455.397C163.475 455.343 164.355 454.207 162.89 452.241 157.797 445.447 151.133 440.952 142.674 439.479 140.712 439.136 140.04 439.949 140.887 442.028 143.467 448.327 154.096 455.545 160.821 455.397M349.208 480.271C333.87 489.117 319.876 498.812 306.364 509.234 301.97 512.625 298.518 516.702 296.381 521.901 292.632 531.059 287.775 539.643 282.574 548.033 275.587 559.283 282.951 567.471 293.687 568.425 302.596 569.226 310.08 565.802 316.476 559.788 320.251 556.234 323.464 552.218 326.245 547.852 327.663 545.611 329.033 543.344 330.564 541.185 338.184 530.434 347.979 527.756 359.798 533.575 382.5 544.764 404.133 557.929 426.285 570.147 439.802 577.602 453.239 585.218 466.636 592.894 473.475 596.818 473.549 598.054 468.141 603.8 457.553 615.044 449.067 616.389 435.596 608.752 425.23 602.879 414.971 596.823 404.623 590.924 402.628 589.787 400.693 588.38 397.931 588.139 398.268 590.123 399.866 590.648 401.049 591.448 412.994 599.522 424.981 607.534 436.919 615.627 440.925 618.347 440.809 618.845 436.812 621.743 427.029 628.834 417.315 626.345 407.7 621.489 399.961 617.572 392.355 613.395 384.669 609.379 383.286 608.652 381.943 607.668 379.906 607.81 380.812 609.796 382.567 610.602 384.005 611.618 392.168 617.405 400.337 623.183 408.614 628.801 410.745 630.248 410.752 631.089 408.755 632.575 400.74 638.584 391.992 639.397 382.849 636.02 377.072 633.888 371.514 631.135 365.837 628.727 364.272 628.054 362.808 626.959 360.61 627.126 362.277 630.133 365.643 630.86 367.584 633.276 360.663 632.26 327.38 615.708 307.985 603.786 288.769 591.973 270.541 578.812 253.779 563.696 237.144 548.692 221.583 532.654 207.521 515.167 193.459 497.689 182.219 478.366 170.543 459.251 170.341 461.661 171.638 463.518 172.639 465.409 201.307 519.836 241.094 564.429 291.215 599.892 297.1 604.057 302.985 608.221 308.764 612.527 310.308 613.685 312.426 614.546 312.747 617.035 310.012 618.063 308.306 616.127 307.111 614.599 300.895 606.64 292.901 606.511 284.422 609.358 279.833 610.898 276.084 610.152 271.946 607.877 249.882 595.76 227.966 583.361 208.644 567.059 171.691 535.895 146.826 496.902 134.041 450.204 127.188 425.168 126.12 399.671 127.557 373.942 128.162 363.185 129.378 352.522 131.589 341.972 131.918 340.424 132.025 338.817 133.349 337 136.103 341.172 136.856 345.841 138.475 350.086 154.17 391.166 178.571 425.888 213.105 453.297 235.35 470.951 260.208 483.721 286.894 493.114 294.197 495.684 301.05 494.21 307.789 490.954 314.273 487.825 320.79 484.737 327.413 481.926 334.233 479.039 341.376 478.931 349.208 480.271" fill="#FFFFFF" fill-rule="evenodd"/><path d="M354.486 147C357.371 149.711 358.545 153.247 360.154 156.434 377.621 190.947 389.272 227.353 393.304 265.826 396.329 294.71 395.651 323.623 388.46 352.084 386.756 358.828 383.336 363.551 377.09 366.784 345.981 382.9 313.57 395.427 278.671 399.695 254.027 402.713 229.142 403.916 204.901 395.971 199.985 394.36 199.938 394.321 203.513 390.422 220.604 371.802 238.399 353.827 254.289 334.123 294.608 284.117 324.799 228.501 346.177 168.008 348.469 161.506 350.971 155.072 353.413 148.624 353.609 148.107 354.031 147.671 354.486 147" fill="#FFFFFF" fill-rule="evenodd"/><path d="M568.454 419.302C571.537 419.047 580.001 408.835 579.623 406.073 579.347 404.062 578.129 404.028 576.823 405.03 572.641 408.231 569.579 412.304 567.613 417.178 567.228 418.133 567.013 419.283 568.454 419.302M573.059 383.001C569.593 389.656 567.962 395.687 568.3 402.744 574.411 398.127 576.128 391.262 573.059 383.001M564.071 403.154C564.064 403.013 564.01 401.844 563.897 400.681 563.781 399.652 563.614 398.49 562.421 398.234 560.941 397.924 560.402 399.101 559.978 400.23 558.463 404.25 557.96 408.465 557.851 412.707 557.816 413.789 557.858 415.376 559.123 415.725 560.712 416.163 561.338 414.562 561.979 413.487 563.674 410.63 564.078 407.444 564.071 403.154M534.686 450.346C534.686 452.842 534.538 455.349 534.753 457.829 534.834 458.851 534.948 460.411 536.389 460.605 537.607 460.774 537.978 459.504 538.448 458.622 541.956 452.148 541.835 445.398 539.875 438.542 539.607 437.615 539.324 436.37 538.119 436.271 536.604 436.141 536.248 437.547 535.877 438.595 534.531 442.394 534.39 446.361 534.686 450.346M481.716 527.938C481.623 526.177 481.878 523.784 480.896 521.579 480.551 520.813 479.993 519.763 479.346 519.603 478.445 519.381 477.954 520.476 477.602 521.276 474.864 527.563 473.571 534.11 474.176 540.974 474.264 541.935 474.102 543.219 475.476 543.427 476.668 543.609 477.273 542.587 477.88 541.773 480.854 537.847 481.609 533.27 481.716 527.938M545.928 431.894C545.928 432.472 545.868 433.069 545.942 433.641 546.164 435.436 545.47 438.091 547.853 438.394 549.947 438.663 550.781 436.203 551.381 434.462 553.415 428.519 553.522 422.429 552.27 416.297 552.095 415.43 551.805 414.469 550.823 414.347 549.711 414.213 549.47 415.33 549.16 416.082 547.066 421.138 546.204 426.456 545.928 431.894M508.39 499.052C508.147 496.873 508.033 494.668 507.616 492.524 507.42 491.497 507.245 490.01 505.622 490.063 504.371 490.104 504.007 491.247 503.644 492.161 501.105 498.534 500.176 505.149 500.79 511.973 500.857 512.78 500.627 513.895 501.698 514.225 502.715 514.533 503.28 513.592 503.805 512.96 507.165 508.94 508.43 504.235 508.39 499.052M519.861 482.158C519.666 479.966 519.706 477.729 519.194 475.617 518.886 474.34 518.293 472.485 516.481 472.599 514.98 472.693 514.522 474.28 514.225 475.55 512.907 481.305 512.133 487.106 513.19 493.014 513.419 494.305 513.479 495.966 514.96 496.215 516.811 496.523 517.262 494.668 517.82 493.384 519.37 489.815 519.727 486.017 519.861 482.158M509.838 546.936C504.445 546.593 499.65 547.192 494.925 547.884 491.767 548.349 488.799 549.767 486.099 551.602 485.339 552.113 484.544 552.637 484.908 553.653 485.063 554.083 485.689 554.453 486.18 554.641 493.377 557.356 504.66 553.868 509.838 546.936M555.447 452.183C563.654 450.568 570.237 446.818 574.768 439.946 575.933 438.179 575.308 437.198 573.181 437.224 569.134 437.291 555.467 446.515 554.175 450.025 553.63 451.517 554.02 452.289 555.447 452.183M521.909 507.851C532.282 507.973 539.028 503.622 544.515 496.806 545.187 495.973 545.766 494.95 545.141 494.004 544.467 492.996 543.229 493.317 542.3 493.674 534.693 496.558 528.054 500.84 521.909 507.851M501.967 541.363C508.133 540.524 514.306 538.89 519.282 534.318 520.13 533.538 521.019 532.55 520.359 531.253 519.766 530.089 518.575 530.494 517.612 530.594 511.258 531.292 505.307 533.196 499.967 536.772 498.809 537.545 497.019 538.352 497.732 540.052 498.353 541.546 500.176 541.377 501.967 541.363M476.344 569.202C482.861 569.283 488.038 567.763 492.872 565.068 493.989 564.442 495.485 563.655 495.147 562.156 494.79 560.576 493.113 560.752 491.816 560.697 486.449 560.482 481.272 561.504 476.277 563.373 474.176 564.159 470.715 564.576 471.174 567.238 471.625 569.868 475.072 568.933 476.344 569.202M526.203 452.539C523.113 460.572 522.655 468.282 523.342 476.108 523.436 477.204 523.699 478.777 524.937 479.052 526.345 479.376 526.634 477.701 527.22 476.813 531.413 470.434 531.11 459.455 526.203 452.539M495.705 513.317C495.76 511.912 495.773 509.412 494.723 507.071 493.794 505.001 492.307 504.638 491.336 506.796 488.422 513.303 487.116 520.14 488.079 527.279 488.214 528.268 488.603 529.552 489.728 529.64 490.799 529.726 491.371 528.544 491.929 527.697 494.554 523.656 495.733 519.199 495.705 513.317M537.425 490.137C543.336 490.016 553.091 482.945 555.393 477.311 556.47 474.669 554.788 474.736 553.361 475.201 546.373 477.44 540.461 481.432 535.5 486.817 534.902 487.469 534.355 488.235 534.746 489.184 535.265 490.44 536.463 490.003 537.425 490.137M516.307 524.006C522.641 524.006 528.001 521.639 532.477 517.216 533.394 516.308 534.733 515.334 534.005 513.923 533.299 512.537 531.629 512.907 530.403 513.115 524.13 514.212 518.251 516.389 513.021 520.094 512.113 520.739 510.711 521.452 511.068 522.736 511.432 524.02 512.961 523.892 514.112 523.992 514.839 524.066 515.573 524.006 516.307 524.006M468.32 543.353C468.32 540.704 468.253 538.063 467.331 535.528 467.034 534.715 466.805 533.727 465.781 533.653 464.745 533.586 464.28 534.574 463.937 535.319 460.907 541.847 459.756 548.712 460.47 555.871 460.544 556.677 460.692 557.726 461.688 558.002 462.705 558.284 463.344 557.451 463.87 556.806 467.027 552.878 468.609 548.423 468.32 543.353M547.988 472.37C554.047 472.619 565.189 464.336 567.02 458.32 567.457 456.881 567.061 456.492 565.66 456.511 561.467 456.573 547.705 465.708 546.292 469.473 545.678 471.079 545.685 472.423 547.988 472.37M563.331 434.106C571.342 432.868 576.943 428.438 581.078 421.931 581.657 421.023 582.875 419.975 582.046 418.785 581.071 417.386 579.482 418.152 578.391 418.603 571.861 421.305 566.408 425.473 562.106 431.101 561.601 431.765 560.765 432.558 561.486 433.414 561.877 433.877 562.771 433.916 563.331 434.106M585.379 334C588.308 340.595 589.061 347.303 590.057 353.886 593.848 378.805 594.043 403.921 590.253 428.721 584.759 464.646 570.427 497.277 548.782 526.506 531.824 549.418 511.911 569.37 487.641 584.677 485.035 586.324 482.281 587.763 479.502 589.114 476.384 590.64 473.516 590.365 471.019 586.949 477.32 583.507 483.534 580.113 489.74 576.724 484.746 576.771 480.484 578.829 476.479 581.04 468.858 585.255 461.723 584.98 454.519 580.368 453.172 579.5 451.63 578.949 449.719 578.029 478.505 553.107 504.802 526.393 524.904 494.219 524.621 493.976 524.339 493.741 524.056 493.5 520.144 498.541 516.226 503.576 512.328 508.618 494.952 531.091 475.476 551.514 453.172 569.181 451.227 570.728 449.024 571.971 446.904 573.296 443.849 575.184 441.558 573.181 439.311 571.582 436.874 569.861 438.442 567.796 439.311 566.082 445.584 553.76 451.987 541.491 458.288 529.182 459.003 527.79 460.12 526.52 460.092 523.67 458.477 525.956 457.305 527.461 456.289 529.062 449.193 540.255 442.172 551.495 435.002 562.64 434.147 563.972 433.237 566.613 431.407 565.658 429.939 564.899 430.956 562.413 431.569 560.785 432.962 557.107 434.463 553.464 436.335 548.758 432.652 551.636 431.63 555.037 429.839 557.847 425.98 563.912 425.954 564.127 419.827 560.724 404.242 552.08 388.773 543.232 373.207 534.54 368.576 531.958 363.809 529.626 359.097 527.207 350.561 522.842 342.609 524.066 335.057 529.64 329.986 533.383 326.101 538.116 322.763 543.394 319.761 548.12 316.704 552.792 312.429 556.549 306.62 561.659 299.853 563.488 292.32 562.505 285.339 561.605 283.083 557.134 286.719 551.231 292.374 542.062 297.652 532.738 301.422 522.615 302.687 519.213 304.963 516.544 307.85 514.36 319.62 505.466 331.892 497.317 344.265 489.311 349.085 486.186 354.235 487.132 359.278 487.974 372.783 490.225 386.267 492.651 399.732 495.147 414.562 497.902 428.283 494.252 441.862 488.631 491.088 468.263 531.272 437.15 558.875 391.007 568.192 375.41 575.085 358.679 581.488 341.724 582.45 339.177 583.272 336.494 585.379 334" fill="#FFFFFF" fill-rule="evenodd"/><path d="M322 403.274C333.493 398.764 345.027 394.36 356.466 389.73 368.383 384.903 379.734 379.008 390.223 371.473 400.281 364.24 405.484 354.353 406.199 342.301 407.602 318.768 407.662 295.195 405.66 271.696 403.111 241.704 397.382 212.277 387.986 183.669 384.642 173.492 383.914 163.517 385.134 152.924 388.026 127.819 387.339 102.679 384.245 77.6006 383.941 75.1405 382.863 72.7745 383.313 70.2269 384.25 69.6019 384.649 70.4152 385.067 70.8991 419.108 110.201 449.042 152.131 468.395 200.789 479.647 229.081 486.206 258.259 485.995 288.904 485.921 299.564 482.706 308.075 475.493 315.911 434.382 360.584 384.568 390.274 325.142 403.656 324.157 403.878 323.134 403.885 322.128 404 322.081 403.757 322.041 403.515 322 403.274" fill="#FFFFFF" fill-rule="evenodd"/><path d="M325.072 435.365C320.655 435.573 316.229 435.795 311.805 435.962 310.667 436.009 309.158 436.252 309.158 434.516 309.158 430.701 308.579 426.839 309.636 423.08 310.398 420.408 312.755 420.221 314.971 420.011 330.986 418.504 346.833 416.008 362.452 412.073 387.236 405.823 409.321 393.854 430.711 380.345 438.187 375.616 445.73 371.007 453.097 366.116 455.602 364.449 456.902 364.53 458.566 367.18 463.806 375.549 469.161 383.857 474.764 391.977 476.859 395.012 476.239 396.431 473.295 398.107 459.913 405.735 445.628 411.265 431.23 416.52 396.955 429.033 361.502 434.974 325.072 435.365" fill="#FFFFFF" fill-rule="evenodd"/><path d="M330 630.883C329.867 641.382 322.783 646.917 313.232 644.396 307.3 642.829 304.412 637.491 306.888 632.009 309.671 625.849 314.769 622.091 321.226 620.275 324.389 619.385 326.917 620.683 328.376 623.749 329.514 626.145 329.913 628.686 330 630.883" fill="#FFFFFF" fill-rule="evenodd"/><path d="M292.702 613C299.27 612.953 304.032 617.1 304 622.828 303.96 629.487 297.313 636.817 291.15 636.996 285.217 637.169 280.148 631.721 280.004 625.008 279.84 617.645 284.693 613.053 292.702 613" fill="#FFFFFF" fill-rule="evenodd"/><path d="M336.727 650C332.221 649.943 331.253 648.763 332.501 644.371 333.561 640.637 334.893 636.994 336.116 633.316 337.311 629.721 339.445 629.137 342.383 631.138 342.741 631.386 343.137 631.571 343.488 631.826 346.857 634.196 349.386 637.242 348.951 641.793 348.502 646.466 344.855 647.862 341.331 649.264 339.822 649.868 338.294 650.007 336.727 650" fill="#FFFFFF" fill-rule="evenodd"/><path d="M243.008 610.61C243.305 598.466 244.692 597.667 255.188 603.584 255.319 603.66 255.471 603.694 255.595 603.784 258.307 605.77 263.214 606.681 262.993 610.149 262.8 613.149 258.086 613.996 255.174 615.486 254.105 616.039 252.994 616.514 251.876 616.948 245.423 619.437 242.835 617.582 243.008 610.61" fill="#FFFFFF" fill-rule="evenodd"/><path d="M355 637C359.718 638.353 363.459 639.59 367 641.774 362.187 644.269 358.948 643.09 355 637" fill="#FFFFFF" fill-rule="evenodd"/><path d="M208 419.213C208.504 419.313 237.969 430.187 270.135 437.785 279.527 439.997 325.748 443.708 352.586 442.794 404.416 441.019 482.446 423.926 535.162 375 535.162 375 541.343 379.128 531.037 414.491 531.037 414.491 511.306 439.25 497.171 447.211 497.171 447.211 475.231 461.614 459.913 469.275 444.603 476.94 419.134 487 413.545 487 400.29 487 356.24 468.93 342.253 466.228 330.792 464.009 297.928 484.055 295.751 483.173 289.188 480.497 216.243 461.656 208 419.213" fill="#FFFFFF" fill-rule="evenodd"/></g></svg>